<svg width="184" height="130" viewBox="0 0 184 130" fill="none" xmlns="http://www.w3.org/2000/svg">
<path d="M87.9277 0H128.37C129.576 0 130.18 1.4601 129.327 2.31403L115.432 16.2307C114.206 17.4581 112.544 18.1477 110.811 18.1477H88.2793C86.6619 18.1477 85.1674 19.0119 84.3587 20.4147C83.4815 21.9364 83.5611 23.8286 84.5629 25.2709L89.8299 32.8537C90.926 34.4318 89.7985 36.5929 87.8791 36.5929H61.2192C54.8677 36.5929 51.6869 28.902 56.1781 24.404L75.3248 5.2282C78.6673 1.88064 83.2007 0 87.9277 0Z" fill="#2A2A2A"/>
<path d="M97.2237 61.2857H56.7809C55.5751 61.2857 54.9712 59.8256 55.8239 58.9717L69.7194 45.055C70.945 43.8276 72.6072 43.138 74.3405 43.138H96.8721C98.4895 43.138 99.984 42.2738 100.793 40.871C101.67 39.3494 101.59 37.4571 100.588 36.0148L95.3214 28.432C94.2253 26.8539 95.3528 24.6928 97.2722 24.6928H123.932C130.284 24.6928 133.464 32.3837 128.973 36.8817L109.827 56.0575C106.484 59.4051 101.951 61.2857 97.2237 61.2857Z" fill="#2A2A2A"/>
<path d="M14.166 129.56C11.315 129.56 8.82032 129.115 6.68206 128.224C4.5438 127.297 2.88665 125.997 1.71061 124.322C0.570202 122.611 0 120.633 0 118.388V117.212C0 117.034 0.0534564 116.891 0.160369 116.784C0.30292 116.642 0.463289 116.571 0.641477 116.571H6.73551C6.9137 116.571 7.05625 116.642 7.16317 116.784C7.30572 116.891 7.37699 117.034 7.37699 117.212V118.014C7.37699 119.439 8.03629 120.651 9.35488 121.649C10.6735 122.611 12.4554 123.092 14.7005 123.092C16.5893 123.092 17.997 122.7 18.9236 121.916C19.8502 121.097 20.3135 120.099 20.3135 118.923C20.3135 118.067 20.0284 117.355 19.4582 116.784C18.888 116.179 18.1039 115.662 17.1061 115.234C16.1439 114.771 14.5936 114.147 12.4554 113.363C10.0676 112.543 8.03629 111.706 6.36132 110.851C4.72199 109.995 3.33212 108.837 2.19172 107.376C1.08695 105.879 0.534565 104.044 0.534565 101.87C0.534565 99.7318 1.08695 97.8608 2.19172 96.2571C3.29648 94.6534 4.8289 93.4239 6.78897 92.5686C8.74904 91.7133 11.012 91.2856 13.5779 91.2856C16.2864 91.2856 18.6919 91.7668 20.7946 92.729C22.9328 93.6912 24.59 95.0454 25.766 96.7917C26.9777 98.5023 27.5835 100.498 27.5835 102.779V103.581C27.5835 103.759 27.5123 103.919 27.3697 104.062C27.2628 104.169 27.1202 104.222 26.9421 104.222H20.7946C20.6164 104.222 20.456 104.169 20.3135 104.062C20.2065 103.919 20.1531 103.759 20.1531 103.581V103.153C20.1531 101.656 19.5294 100.391 18.2821 99.3576C17.0704 98.2884 15.3955 97.7539 13.2572 97.7539C11.5822 97.7539 10.2636 98.1103 9.30142 98.823C8.37485 99.5358 7.91156 100.516 7.91156 101.763C7.91156 102.654 8.17884 103.402 8.7134 104.008C9.28361 104.614 10.1033 105.167 11.1724 105.665C12.2772 106.129 13.97 106.77 16.2508 107.59C18.781 108.516 20.7589 109.336 22.1844 110.049C23.6456 110.762 24.9464 111.831 26.0868 113.256C27.2628 114.646 27.8508 116.464 27.8508 118.709C27.8508 122.059 26.6213 124.714 24.1623 126.674C21.7033 128.598 18.3712 129.56 14.166 129.56Z" fill="#2A2A2A"/>
<path d="M43.2926 101.229C45.6091 101.229 47.6761 101.638 49.4936 102.458C51.3111 103.242 52.7188 104.329 53.7166 105.719C54.7501 107.109 55.2669 108.659 55.2669 110.37V128.491C55.2669 128.67 55.1956 128.83 55.0531 128.972C54.9461 129.079 54.8036 129.133 54.6254 129.133H48.371C48.1928 129.133 48.0324 129.079 47.8899 128.972C47.783 128.83 47.7295 128.67 47.7295 128.491V126.727C47.7295 126.62 47.6939 126.549 47.6226 126.513C47.5513 126.478 47.4801 126.513 47.4088 126.62C45.912 128.58 43.5065 129.56 40.1922 129.56C37.4124 129.56 35.1673 128.883 33.4566 127.529C31.746 126.175 30.8907 124.179 30.8907 121.542C30.8907 118.798 31.853 116.677 33.7774 115.181C35.7018 113.648 38.4459 112.882 42.0097 112.882H47.4622C47.6404 112.882 47.7295 112.793 47.7295 112.615V111.439C47.7295 110.263 47.3731 109.354 46.6604 108.712C45.9476 108.035 44.8785 107.697 43.453 107.697C42.3482 107.697 41.4217 107.893 40.6733 108.285C39.9605 108.677 39.4972 109.229 39.2834 109.942C39.1765 110.334 38.9448 110.512 38.5885 110.477L32.1202 109.621C31.6926 109.55 31.4966 109.39 31.5322 109.14C31.6748 107.643 32.2628 106.289 33.2963 105.077C34.3654 103.866 35.7553 102.921 37.4659 102.244C39.2121 101.567 41.1544 101.229 43.2926 101.229ZM42.2235 123.948C43.7559 123.948 45.0567 123.538 46.1258 122.718C47.195 121.898 47.7295 120.847 47.7295 119.564V117.64C47.7295 117.461 47.6404 117.372 47.4622 117.372H43.6134C42.0097 117.372 40.7445 117.675 39.818 118.281C38.927 118.887 38.4816 119.742 38.4816 120.847C38.4816 121.809 38.8201 122.575 39.4972 123.146C40.1743 123.68 41.0831 123.948 42.2235 123.948Z" fill="#2A2A2A"/>
<path d="M75.7716 107.055C75.7716 107.233 75.7003 107.394 75.5578 107.536C75.4509 107.643 75.3083 107.697 75.1301 107.697H69.9983C69.8201 107.697 69.731 107.786 69.731 107.964V119.297C69.731 120.473 69.9627 121.346 70.426 121.916C70.9249 122.486 71.7089 122.772 72.7781 122.772H74.5421C74.7203 122.772 74.8629 122.843 74.9698 122.985C75.1123 123.092 75.1836 123.235 75.1836 123.413V128.491C75.1836 128.883 74.9698 129.115 74.5421 129.186C73.0453 129.258 71.9762 129.293 71.3347 129.293C68.3768 129.293 66.1673 128.812 64.7061 127.85C63.245 126.852 62.4966 124.999 62.461 122.29V107.964C62.461 107.786 62.3719 107.697 62.1937 107.697H59.1467C58.9685 107.697 58.8081 107.643 58.6655 107.536C58.5586 107.394 58.5052 107.233 58.5052 107.055V102.298C58.5052 102.119 58.5586 101.977 58.6655 101.87C58.8081 101.727 58.9685 101.656 59.1467 101.656H62.1937C62.3719 101.656 62.461 101.567 62.461 101.389V95.0276C62.461 94.8494 62.5144 94.7069 62.6213 94.5999C62.7639 94.4574 62.9242 94.3861 63.1024 94.3861H69.0896C69.2677 94.3861 69.4103 94.4574 69.5172 94.5999C69.6598 94.7069 69.731 94.8494 69.731 95.0276V101.389C69.731 101.567 69.8201 101.656 69.9983 101.656H75.1301C75.3083 101.656 75.4509 101.727 75.5578 101.87C75.7003 101.977 75.7716 102.119 75.7716 102.298V107.055Z" fill="#2A2A2A"/>
<path d="M96.3461 102.298C96.3461 102.119 96.3995 101.977 96.5065 101.87C96.649 101.727 96.8094 101.656 96.9876 101.656H103.242C103.42 101.656 103.563 101.727 103.67 101.87C103.812 101.977 103.883 102.119 103.883 102.298V128.491C103.883 128.67 103.812 128.83 103.67 128.972C103.563 129.079 103.42 129.133 103.242 129.133H96.9876C96.8094 129.133 96.649 129.079 96.5065 128.972C96.3995 128.83 96.3461 128.67 96.3461 128.491V126.674C96.3461 126.567 96.3104 126.513 96.2392 126.513C96.1679 126.478 96.0966 126.513 96.0253 126.62C94.5998 128.545 92.3903 129.507 89.3967 129.507C86.6883 129.507 84.4609 128.687 82.7147 127.048C80.9684 125.409 80.0953 123.11 80.0953 120.152V102.298C80.0953 102.119 80.1488 101.977 80.2557 101.87C80.3982 101.727 80.5586 101.656 80.7368 101.656H86.9377C87.1159 101.656 87.2585 101.727 87.3654 101.87C87.5079 101.977 87.5792 102.119 87.5792 102.298V118.281C87.5792 119.707 87.9534 120.865 88.7018 121.756C89.4858 122.647 90.555 123.092 91.9092 123.092C93.1209 123.092 94.1187 122.736 94.9028 122.023C95.6868 121.275 96.1679 120.313 96.3461 119.136V102.298Z" fill="#2A2A2A"/>
<path d="M113.608 129.347C112.397 129.347 111.381 128.955 110.561 128.171C109.777 127.351 109.385 126.335 109.385 125.124C109.385 123.876 109.777 122.861 110.561 122.077C111.345 121.293 112.361 120.901 113.608 120.901C114.856 120.901 115.871 121.293 116.655 122.077C117.439 122.861 117.831 123.876 117.831 125.124C117.831 126.335 117.422 127.351 116.602 128.171C115.818 128.955 114.82 129.347 113.608 129.347Z" fill="#2A2A2A"/>
<path d="M124.97 129.133C124.791 129.133 124.631 129.079 124.488 128.972C124.382 128.83 124.328 128.67 124.328 128.491V92.3548C124.328 92.1766 124.382 92.034 124.488 91.9271C124.631 91.7846 124.791 91.7133 124.97 91.7133H131.224C131.402 91.7133 131.545 91.7846 131.652 91.9271C131.794 92.034 131.865 92.1766 131.865 92.3548V107.323C131.865 107.429 131.901 107.501 131.972 107.536C132.044 107.536 132.115 107.501 132.186 107.429L144.535 92.0875C144.748 91.838 145.016 91.7133 145.336 91.7133H152.393C152.678 91.7133 152.856 91.8024 152.927 91.9806C152.999 92.1231 152.963 92.3013 152.82 92.5151L140.9 107.75C140.793 107.893 140.775 108.018 140.846 108.124L153.462 128.384C153.533 128.598 153.569 128.723 153.569 128.759C153.569 129.008 153.391 129.133 153.034 129.133H145.978C145.622 129.133 145.372 128.99 145.23 128.705L135.714 113.31C135.679 113.238 135.625 113.203 135.554 113.203C135.483 113.203 135.411 113.238 135.34 113.31L131.972 117.533C131.901 117.675 131.865 117.782 131.865 117.854V128.491C131.865 128.67 131.794 128.83 131.652 128.972C131.545 129.079 131.402 129.133 131.224 129.133H124.97Z" fill="#2A2A2A"/>
<path d="M169.375 129.56C166.631 129.56 164.207 129.008 162.105 127.903C160.002 126.799 158.363 125.266 157.187 123.306C156.046 121.31 155.476 119.012 155.476 116.41V104.436C155.476 101.834 156.046 99.5358 157.187 97.5401C158.363 95.5443 160.002 94.0119 162.105 92.9428C164.207 91.838 166.631 91.2856 169.375 91.2856C172.083 91.2856 174.471 91.8202 176.538 92.8893C178.641 93.9585 180.262 95.4196 181.402 97.2728C182.578 99.0903 183.166 101.122 183.166 103.367V103.741C183.166 103.919 183.095 104.08 182.953 104.222C182.846 104.329 182.703 104.382 182.525 104.382H176.271C176.092 104.382 175.932 104.329 175.789 104.222C175.683 104.08 175.629 103.919 175.629 103.741V103.581C175.629 101.941 175.059 100.569 173.919 99.4645C172.778 98.3241 171.264 97.7539 169.375 97.7539C167.45 97.7539 165.9 98.3597 164.724 99.5714C163.584 100.747 163.013 102.298 163.013 104.222V116.624C163.013 118.548 163.637 120.116 164.884 121.328C166.132 122.504 167.718 123.092 169.642 123.092C171.495 123.092 172.974 122.611 174.079 121.649C175.184 120.651 175.736 119.279 175.736 117.533V115.127C175.736 114.949 175.647 114.86 175.469 114.86H169.482C169.303 114.86 169.143 114.806 169.001 114.7C168.894 114.557 168.84 114.397 168.84 114.218V109.3C168.84 109.122 168.894 108.98 169.001 108.873C169.143 108.73 169.303 108.659 169.482 108.659H182.525C182.703 108.659 182.846 108.73 182.953 108.873C183.095 108.98 183.166 109.122 183.166 109.3V116.357C183.166 119.065 182.596 121.417 181.456 123.413C180.315 125.409 178.694 126.941 176.591 128.01C174.524 129.044 172.119 129.56 169.375 129.56Z" fill="#2A2A2A"/>
</svg>
